<?xml version="1.0" standalone="no"?>
<!DOCTYPE svg PUBLIC "-//W3C//DTD SVG 20010904//EN"
 "http://www.w3.org/TR/2001/REC-SVG-20010904/DTD/svg10.dtd">
<svg version="1.0" xmlns="http://www.w3.org/2000/svg"
 width="413.000000pt" height="720.000000pt" viewBox="0 0 413.000000 720.000000"
 preserveAspectRatio="xMidYMid meet">

<g transform="translate(0.000000,720.000000) scale(0.100000,-0.100000)"
fill="#000000" stroke="none">
<path d="M1330 6951 c-14 -8 -31 -22 -38 -28 -8 -7 -22 -18 -33 -24 -11 -5
-17 -14 -13 -20 3 -5 0 -16 -6 -24 -19 -23 -6 -18 22 8 13 12 22 29 20 36 -3
10 2 9 19 -2 21 -14 26 -14 43 -1 11 8 15 14 9 14 -13 0 -12 32 2 42 21 15 -2
15 -25 -1z m4 -33 c-1 -13 -3 -25 -3 -27 -1 -2 -8 2 -16 9 -12 10 -13 16 -4
26 17 20 26 17 23 -8z"/>
<path d="M1189 6849 c-19 -17 -25 -26 -13 -20 12 6 23 9 25 8 2 -1 3 0 2 2 -2
2 5 10 15 17 9 7 14 15 11 18 -3 3 -21 -8 -40 -25z"/>
<path d="M1176 6812 c-3 -5 1 -9 9 -9 8 0 12 4 9 9 -3 4 -7 8 -9 8 -2 0 -6 -4
-9 -8z"/>
<path d="M1083 6752 c-8 -14 -8 -19 1 -19 7 0 13 9 13 19 1 10 1 18 0 18 -1 0
-7 -8 -14 -18z"/>
<path d="M3333 6397 c-4 -8 -17 -17 -27 -20 -28 -11 -11 -21 40 -24 l46 -3
-22 30 c-24 34 -26 35 -37 17z"/>
<path d="M3143 6343 c-40 -2 -73 -8 -73 -14 0 -14 -63 -39 -97 -39 -24 -1 -26
-2 -10 -11 9 -6 26 -8 36 -4 11 3 22 2 25 -3 6 -11 -78 -24 -141 -22 -34 1
-48 -5 -73 -30 l-31 -30 57 -25 c71 -31 111 -32 146 -1 15 12 25 26 22 29 -3
3 -1 14 5 25 13 24 78 39 95 21 8 -8 8 -13 -1 -16 -22 -8 -14 -23 12 -23 22 0
24 -4 23 -37 0 -21 -4 -42 -8 -48 -4 -5 -10 -27 -14 -47 -6 -31 -11 -38 -29
-38 -33 0 -65 -26 -82 -67 -19 -46 -14 -64 10 -36 17 20 26 22 82 17 35 -3 63
-1 63 4 0 5 13 12 29 15 16 4 30 14 33 25 4 13 18 22 41 26 19 4 37 13 40 20
6 16 90 29 177 26 54 -1 63 1 52 12 -15 15 -152 29 -166 16 -14 -12 -23 -10
-30 7 -8 21 13 75 30 75 16 0 104 42 104 49 0 17 -41 69 -52 67 -20 -3 -52
-38 -67 -75 -8 -18 -17 -29 -20 -24 -3 5 -18 16 -33 26 -26 16 -29 16 -63 -2
-56 -30 -102 -7 -89 43 4 19 13 26 31 26 37 0 83 28 83 50 0 15 -6 19 -22 18
-13 -1 -56 -4 -95 -5z m127 -183 c16 -40 7 -60 -28 -60 -32 0 -81 29 -50 30 9
0 25 14 35 30 22 37 27 37 43 0z"/>
<path d="M3500 5995 c0 -8 7 -15 16 -15 8 0 12 -4 9 -10 -3 -6 5 -10 19 -10
13 0 32 -3 42 -7 12 -4 15 -2 12 8 -3 8 -13 16 -24 18 -10 2 -23 9 -27 17 -11
19 -47 18 -47 -1z"/>
<path d="M3076 5922 c-3 -5 1 -15 9 -22 16 -14 20 -3 6 19 -5 8 -11 9 -15 3z"/>
<path d="M3620 5907 c-8 -7 -16 -25 -17 -40 -2 -23 6 -33 44 -57 26 -17 48
-28 50 -26 4 4 -53 136 -59 136 -2 0 -10 -6 -18 -13z"/>
<path d="M3256 5875 c4 -8 -1 -17 -10 -21 -23 -9 -20 -21 7 -28 29 -8 50 19
36 45 -12 23 -41 26 -33 4z"/>
<path d="M3172 5860 c-11 -18 -10 -20 11 -18 14 1 24 9 24 20 2 24 -19 23 -35
-2z"/>
<path d="M3328 5843 c7 -3 16 -2 19 1 4 3 -2 6 -13 5 -11 0 -14 -3 -6 -6z"/>
<path d="M2973 5817 c-54 -44 -101 -67 -139 -67 -22 -1 -57 -8 -79 -17 -45
-17 -202 -18 -223 -1 -7 6 -29 8 -51 4 -28 -4 -42 -2 -51 9 -18 21 -33 19 -27
-5 4 -15 0 -20 -16 -20 -34 0 -53 -16 -39 -32 9 -11 -2 -13 -64 -12 -67 2 -74
0 -74 -17 0 -10 -3 -19 -8 -19 -4 0 -18 -20 -32 -45 -14 -25 -26 -45 -28 -45
-2 0 -15 9 -29 20 -27 21 -78 27 -88 10 -8 -14 -62 -13 -71 1 -4 8 -23 9 -58
4 -61 -9 -93 -13 -122 -14 -14 -1 -21 -7 -20 -17 1 -17 -10 -25 -61 -44 -29
-11 -32 -16 -39 -68 -3 -32 -13 -65 -22 -75 -13 -15 -14 -25 -4 -68 12 -53 10
-69 -12 -69 -30 0 -35 -22 -15 -61 11 -22 16 -39 12 -39 -5 0 0 -7 10 -14 13
-10 27 -12 51 -5 39 11 78 8 88 -6 4 -5 30 -9 57 -9 41 2 50 -1 54 -17 7 -26
34 -34 54 -18 17 15 19 15 101 18 41 1 52 5 52 17 0 15 2 15 26 -1 21 -14 52
-17 168 -17 77 -1 168 4 200 11 42 8 67 9 85 2 14 -6 59 -12 98 -13 40 -2 73
-6 73 -9 0 -14 92 -15 142 -2 53 15 137 24 150 16 15 -8 -5 -33 -28 -33 -26 0
-30 -11 -13 -42 9 -17 8 -24 -3 -32 -8 -6 -13 -17 -11 -23 3 -7 -7 -17 -22
-23 -36 -14 -50 -13 -38 3 12 14 13 47 2 47 -4 0 -16 3 -26 6 -13 4 -11 0 7
-14 l24 -20 -27 -13 c-15 -7 -27 -15 -27 -20 0 -8 -62 -34 -108 -44 -24 -5
-32 -3 -30 7 6 26 -133 27 -151 0 -7 -11 -194 -31 -236 -25 -16 2 -49 6 -71 9
-25 4 -44 2 -48 -5 -10 -16 -26 -14 -26 4 0 36 -66 41 -128 9 -22 -11 -29 -11
-42 0 -12 11 -43 12 -147 6 -73 -3 -156 -3 -185 1 -37 4 -63 2 -87 -7 -33 -14
-33 -14 -17 -39 25 -39 19 -42 -9 -4 -17 22 -51 46 -99 69 -41 19 -86 50 -101
68 l-27 33 14 72 c19 96 18 245 -3 274 -47 68 -192 116 -219 74 -6 -10 -8 -11
-12 -1 -3 10 -11 9 -36 -4 -20 -10 -29 -21 -26 -31 5 -13 -2 -25 -32 -58 -7
-7 -9 -28 -6 -49 2 -21 1 -38 -4 -38 -15 0 -29 14 -29 28 0 6 -4 12 -10 13
-17 2 -88 40 -122 65 -20 16 -45 24 -70 24 -42 0 -60 -15 -84 -68 -8 -18 -17
-32 -21 -32 -13 0 -9 -20 6 -36 12 -12 10 -18 -14 -44 -15 -16 -32 -30 -37
-30 -5 0 -20 -14 -35 -30 -25 -28 -30 -30 -93 -28 -49 1 -72 6 -84 19 -9 9
-31 20 -49 24 -36 7 -34 25 4 25 15 0 24 6 24 15 0 20 36 55 56 55 10 0 14 6
11 14 -3 7 5 23 19 35 45 39 33 51 -56 51 -63 0 -82 -3 -86 -15 -8 -20 -42
-10 -65 19 l-17 21 -10 -25 c-21 -56 -53 -181 -47 -189 3 -5 23 -12 45 -16 22
-4 40 -9 40 -12 0 -2 -11 -19 -25 -37 -14 -18 -25 -38 -25 -44 0 -7 -9 -12
-21 -12 -12 0 -19 -5 -17 -12 3 -7 -3 -20 -11 -30 -20 -24 -18 -31 11 -40 20
-5 19 -6 -8 -7 -43 -1 -58 -27 -83 -147 -23 -113 -61 -340 -61 -367 0 -15 7
-18 43 -15 27 2 41 7 39 16 -1 9 31 12 138 12 93 0 158 5 197 15 32 9 95 19
141 22 45 3 85 10 88 15 3 4 -3 9 -13 9 -73 5 -126 19 -70 19 14 0 29 5 33 11
3 6 17 8 29 5 39 -10 54 3 62 52 4 26 7 49 8 52 0 3 6 15 13 27 9 17 9 23 -1
27 -9 5 -9 7 1 12 6 3 12 15 12 27 -1 21 -1 21 -15 -3 -8 -14 -14 -33 -15 -42
0 -10 -5 -18 -11 -18 -6 0 -9 -6 -6 -14 3 -8 -1 -20 -8 -26 -23 -19 -85 50
-85 94 0 31 2 33 26 28 17 -3 25 -1 21 5 -4 6 2 18 13 28 17 16 21 16 51 1 38
-19 68 -13 66 14 -1 11 -3 18 -5 16 -6 -7 -50 39 -46 46 3 5 16 8 29 8 19 0
27 8 34 33 10 30 10 29 6 -14 -2 -26 2 -57 8 -70 11 -21 9 -27 -10 -45 -12
-12 -25 -19 -29 -15 -4 3 -4 1 0 -6 4 -7 3 -20 -2 -30 -22 -43 -35 -92 -42
-153 -3 -36 -12 -77 -18 -91 -6 -15 -8 -30 -5 -33 3 -3 0 -12 -7 -21 -7 -8
-13 -34 -14 -58 -1 -23 -4 -46 -7 -52 -4 -5 -10 -48 -14 -94 -4 -46 -11 -78
-15 -71 -11 18 -64 8 -68 -14 -4 -17 1 -18 46 -14 45 4 49 3 35 -10 -11 -11
-13 -25 -8 -51 4 -20 9 -51 10 -69 2 -18 11 -44 20 -58 9 -14 14 -33 12 -42
-3 -12 -5 -11 -6 5 -1 21 -4 22 -68 19 -38 -2 -93 -9 -123 -15 -30 -6 -73 -9
-95 -6 -22 2 -101 7 -175 10 -74 4 -144 7 -155 7 -11 1 -36 1 -56 0 l-36 -2
-7 -152 c-9 -223 19 -797 48 -963 3 -16 15 -91 26 -165 12 -74 33 -187 47
-250 14 -63 31 -143 39 -177 44 -202 185 -633 206 -633 5 0 7 -4 3 -9 -8 -15
48 -149 137 -326 311 -617 711 -1017 1172 -1170 484 -160 986 -10 1416 424 64
64 158 173 211 243 111 149 243 364 235 384 -3 8 -2 13 3 10 5 -3 12 1 15 10
5 12 2 15 -11 9 -21 -9 -102 -10 -109 -2 -3 3 16 8 43 12 85 11 103 16 103 30
0 7 -3 15 -7 18 -5 2 -3 2 4 1 7 -2 15 2 19 7 4 7 -6 10 -27 9 -49 -3 -56 -1
-39 10 13 8 12 10 -2 10 -10 0 -18 5 -18 11 0 5 6 7 13 3 6 -4 9 -4 5 1 -4 4
-31 10 -60 12 -29 2 -54 8 -56 12 -1 4 -31 1 -65 -7 -132 -30 -150 -23 -37 14
59 19 75 21 98 12 15 -7 43 -13 62 -14 19 -1 48 -2 64 -3 23 -1 26 -4 17 -15
-9 -10 -6 -13 17 -11 48 3 52 5 52 17 0 6 -3 9 -6 6 -3 -3 -28 3 -57 13 -28
10 -60 16 -71 13 -15 -5 -18 -3 -12 12 6 17 6 17 -14 -1 -14 -13 -24 -15 -31
-8 -12 12 38 33 77 33 13 0 24 6 24 13 0 8 3 7 10 -3 7 -12 12 -12 29 4 10 9
38 19 62 21 48 3 51 7 104 139 61 153 85 221 130 371 63 205 107 383 100 395
-3 5 0 10 7 10 10 0 10 2 -1 9 -9 6 -10 10 -2 12 22 8 83 363 117 674 17 168
35 608 29 720 l-5 80 -112 -2 c-62 -1 -534 -7 -1048 -13 -514 -5 -1002 -12
-1085 -15 -110 -4 -145 -2 -132 5 9 6 27 13 39 15 11 3 23 7 27 11 3 4 -2 4
-11 1 -15 -5 -18 -1 -18 26 0 18 5 39 11 47 8 12 9 11 4 -6 -4 -16 0 -23 14
-27 22 -5 48 7 33 17 -6 3 -13 0 -15 -6 -4 -8 -6 -7 -6 3 -1 9 8 19 20 22 25
7 20 30 -7 36 -10 2 -22 8 -25 13 -4 6 -13 -4 -20 -21 -19 -43 -25 -39 -21 16
2 27 -2 62 -8 78 -7 17 -14 45 -16 63 -2 18 -11 48 -20 65 -9 18 -18 48 -21
67 -3 19 -9 37 -14 38 -5 2 -7 8 -4 13 4 5 2 23 -3 41 -6 22 -5 39 2 50 10 17
-5 165 -20 189 -3 6 -8 31 -9 57 -2 32 0 41 6 29 10 -18 36 -23 144 -31 39 -3
95 -10 125 -15 30 -4 139 -6 243 -4 132 3 187 1 187 -7 0 -7 -9 -9 -22 -5 -19
5 -20 4 -6 -5 12 -7 29 -7 60 1 71 18 122 23 114 10 -5 -7 6 -12 31 -13 21 0
43 -2 48 -3 6 -2 19 -3 30 -4 19 -1 19 -1 0 -20 -26 -24 -87 -37 -79 -16 3 8
13 16 22 18 10 2 -1 7 -24 11 -29 5 -51 3 -75 -8 l-34 -14 32 -1 c17 -1 35 -6
39 -12 4 -7 0 -9 -13 -5 -24 8 -46 -15 -41 -41 2 -10 14 -20 28 -23 14 -4 43
-14 65 -23 22 -10 49 -22 60 -27 33 -14 113 -20 140 -10 14 5 52 7 85 3 49 -5
58 -8 49 -19 -10 -12 4 -14 77 -14 49 0 109 -6 134 -14 25 -7 79 -17 120 -21
41 -4 83 -13 93 -19 15 -8 21 -8 24 2 3 6 14 12 24 12 11 0 18 -4 15 -9 -4 -5
2 -7 12 -4 10 2 31 -1 47 -7 l30 -12 -27 -14 c-16 -8 -28 -16 -28 -18 0 -10
244 7 310 21 41 8 91 16 110 18 77 5 265 28 272 34 15 13 -56 461 -105 656
-22 88 -23 90 -50 87 -15 -2 -39 4 -52 12 -13 9 -33 16 -44 16 -21 0 -33 22
-25 45 8 21 57 19 99 -5 28 -16 35 -17 35 -5 0 8 -8 19 -17 24 -12 7 -13 11
-5 11 8 0 0 12 -17 26 -17 14 -38 24 -48 23 -35 -4 -73 13 -73 32 0 14 7 19
30 19 17 0 30 -4 30 -10 0 -5 9 -10 20 -10 28 0 27 53 -2 79 -19 18 -20 24 -9
45 7 13 10 33 6 45 -9 28 -58 29 -78 1 -21 -30 -70 -41 -186 -42 -77 0 -105 3
-112 13 -13 21 -6 32 30 41 17 5 29 13 26 18 -4 6 7 10 24 10 34 0 111 28 111
40 0 4 -10 11 -22 14 -22 6 -22 7 -5 17 10 6 30 8 43 5 42 -11 74 36 34 49
-11 3 -20 11 -20 16 0 5 -5 9 -11 9 -15 0 -64 52 -61 64 2 5 -5 17 -15 28 -13
15 -25 18 -54 13 -24 -4 -40 -2 -44 5 -5 8 -36 11 -99 9 -72 -3 -90 -1 -88 9
2 10 -5 12 -28 7 -17 -4 -36 -2 -43 3 -16 12 -145 52 -171 52 -12 0 -32 9 -46
20 -21 17 -23 21 -10 30 8 5 23 10 33 10 10 0 15 5 12 10 -12 19 -73 11 -102
-13z m-578 -167 c3 -5 19 -10 35 -10 17 0 49 -4 72 -10 24 -5 56 -12 71 -15
23 -5 26 -8 15 -19 -13 -12 -35 -19 -103 -33 -30 -6 -30 -7 -5 -13 14 -3 26
-14 28 -23 3 -13 -3 -17 -25 -16 -15 0 -22 3 -15 6 23 9 12 21 -32 34 -38 11
-45 17 -49 43 -2 17 -7 39 -12 49 -8 18 9 25 20 7z m800 -401 c53 1 61 -2 62
-19 1 -11 -6 -22 -18 -25 -11 -4 -17 -11 -14 -16 4 -5 -18 -9 -49 -9 -31 0
-56 -3 -56 -8 0 -8 -16 -17 -66 -41 -16 -7 -37 -17 -46 -22 -10 -5 -29 -9 -42
-9 -24 0 -24 2 -14 31 6 18 25 40 43 51 23 13 35 29 39 52 l6 33 48 -9 c26 -5
74 -9 107 -9z m395 -28 c0 -6 -4 -13 -10 -16 -5 -3 -10 -13 -10 -21 0 -10 12
-14 41 -14 23 0 38 -4 34 -10 -3 -5 -13 -6 -21 -3 -25 9 -65 -17 -59 -39 6
-16 1 -17 -51 -13 -32 2 -63 0 -68 -4 -30 -25 -146 -4 -146 26 0 6 -13 17 -30
25 -30 13 -44 46 -15 35 8 -4 17 -2 20 4 4 5 11 7 16 4 5 -4 17 -2 26 4 13 7
20 4 28 -12 9 -19 18 -22 60 -20 28 2 69 2 93 2 23 0 42 5 42 11 0 5 -5 10
-10 10 -7 0 -7 6 0 20 11 20 60 29 60 11z m-3262 -36 c8 -8 -10 -45 -21 -45
-18 0 -49 39 -41 51 5 9 52 4 62 -6z m730 -53 c10 -41 9 -42 -17 -47 -86 -18
-140 -53 -182 -120 -10 -16 -19 -23 -19 -15 0 8 39 52 86 97 67 64 84 86 79
102 -4 15 -1 20 17 23 13 2 24 3 25 3 1 0 6 -20 11 -43z m-664 -27 c3 -9 0
-15 -9 -15 -9 0 -12 6 -9 15 4 8 7 15 9 15 2 0 5 -7 9 -15z m2661 -185 c3 -5
-3 -10 -14 -10 -12 0 -21 5 -21 10 0 6 6 10 14 10 8 0 18 -4 21 -10z m-1104
-125 c0 -14 -23 -17 -40 -6 -20 13 -4 31 20 23 11 -5 20 -12 20 -17z m-18 -32
c-7 -2 -19 -2 -25 0 -7 3 -2 5 12 5 14 0 19 -2 13 -5z m-286 -135 c-3 -8 -6
-5 -6 6 -1 11 2 17 5 13 3 -3 4 -12 1 -19z m-937 -45 c0 -15 2 -16 10 -3 6 9
10 10 10 3 0 -18 -12 -22 -38 -12 -13 5 -20 13 -17 19 10 17 35 11 35 -7z
m1868 -30 c-10 -2 -26 -2 -35 0 -10 3 -2 5 17 5 19 0 27 -2 18 -5z m-1677
-360 c1 -10 1 -34 0 -54 -2 -20 2 -40 8 -44 7 -4 8 -12 1 -24 -5 -10 -9 -29
-8 -42 1 -13 1 -37 0 -54 -2 -27 -4 -28 -16 -13 -8 10 -11 36 -9 65 2 26 3 78
3 116 0 40 3 67 10 67 5 0 11 -8 11 -17z m674 -222 c3 -10 5 -23 4 -27 -1 -5
1 -22 5 -39 4 -16 12 -50 18 -75 6 -25 15 -49 19 -55 17 -18 9 -25 -31 -25
-22 0 -40 -3 -40 -6 0 -11 28 -33 34 -27 3 4 6 -1 6 -9 0 -9 8 -22 17 -29 14
-12 16 -12 8 0 -5 10 -4 12 4 7 8 -6 10 0 6 21 -5 26 -5 26 6 6 10 -18 8 -26
-10 -49 -11 -15 -21 -21 -21 -14 0 7 -2 11 -5 8 -10 -10 7 -38 19 -31 8 5 8 3
0 -8 -5 -8 -9 -24 -8 -36 1 -14 -6 -24 -20 -28 -18 -6 -19 -8 -3 -12 20 -5 22
-19 5 -29 -7 -5 -8 -3 -3 6 5 9 4 11 -4 6 -6 -4 -8 -12 -5 -18 4 -6 1 -14 -7
-18 -10 -7 -10 -12 -1 -23 7 -7 9 -17 5 -20 -3 -4 0 -14 8 -24 12 -14 12 -16
0 -8 -11 6 -13 4 -8 -8 3 -9 2 -19 -2 -22 -5 -3 -7 -15 -5 -28 3 -14 0 -12 -7
7 -9 21 -9 34 -1 47 8 13 8 19 -1 22 -9 3 -12 46 -13 154 0 82 -4 155 -8 162
-5 7 0 19 12 30 18 15 19 23 12 55 -5 21 -13 43 -18 48 -5 5 -6 27 -1 51 4 23
8 45 9 50 0 15 19 6 25 -12z m265 -91 c0 -5 -5 -10 -11 -10 -5 0 -7 5 -4 10 3
6 8 10 11 10 2 0 4 -4 4 -10z m-922 -95 c3 -25 2 -27 -11 -16 -17 14 -19 53
-2 48 5 -2 12 -16 13 -32z m-153 -38 c11 -2 -27 -4 -85 -4 -88 1 -93 2 -27 4
57 3 76 7 70 16 -5 9 -3 9 8 1 8 -7 23 -14 34 -17z m2935 -2 c7 -8 9 -15 4
-16 -5 0 2 -5 16 -10 13 -6 20 -13 15 -17 -15 -11 -15 -42 0 -42 14 0 15 -17
2 -37 -6 -9 -2 -13 10 -13 14 0 15 -2 5 -9 -11 -7 -11 -11 2 -24 14 -14 13
-16 -12 -26 -19 -8 -21 -10 -7 -10 34 2 36 0 18 -20 -47 -51 -50 -61 -15 -42
14 7 17 4 17 -15 0 -17 -4 -23 -14 -19 -11 4 -12 3 -1 -10 7 -8 16 -13 20 -10
5 3 11 1 15 -5 3 -5 -2 -10 -12 -11 -12 0 -8 -4 11 -11 21 -8 25 -13 15 -19
-8 -5 -23 -8 -34 -8 -16 1 -16 2 5 9 22 7 22 8 4 9 -11 1 -24 -2 -27 -6 -9 -8
22 -43 37 -43 6 0 4 5 -4 10 -17 11 -9 13 14 4 14 -5 14 -9 4 -22 -11 -13 -10
-15 5 -9 9 4 17 2 17 -4 0 -6 7 -8 16 -5 8 3 12 2 9 -4 -3 -5 -20 -7 -38 -4
-23 3 -27 2 -13 -4 18 -8 18 -9 2 -15 -10 -4 -23 -4 -29 0 -7 3 -8 2 -4 -3 5
-5 22 -14 39 -19 29 -10 30 -12 14 -28 -11 -10 -13 -17 -5 -17 9 0 9 -3 0 -14
-10 -12 -8 -13 8 -9 12 3 21 1 21 -5 0 -6 -10 -13 -22 -15 -18 -3 -17 -5 7 -6
24 -1 27 -3 15 -12 -12 -9 -11 -10 8 -6 27 6 28 3 2 -23 -21 -21 -50 -27 -50
-9 0 5 -4 8 -10 4 -20 -12 2 -37 29 -31 14 3 21 3 14 0 -7 -3 -9 -12 -6 -20 4
-10 -4 -14 -28 -15 -20 -1 -26 -3 -15 -6 11 -3 15 -8 8 -12 -6 -3 8 -7 31 -7
23 -1 43 -7 45 -13 2 -6 18 -11 35 -11 24 0 28 -3 17 -10 -17 -11 -51 -3 -63
14 -6 8 -10 7 -14 -2 -2 -6 -9 -10 -14 -6 -5 3 -9 -2 -9 -11 0 -9 4 -14 9 -11
5 3 21 0 35 -8 22 -11 24 -15 11 -20 -9 -3 -13 -10 -10 -16 9 -15 -7 -12 -29
5 -19 14 -19 15 -1 15 10 0 16 3 12 6 -8 9 -48 -6 -42 -16 3 -5 0 -10 -7 -13
-7 -2 -2 -2 12 0 25 3 25 3 5 -13 -16 -14 -17 -16 -2 -11 12 5 17 1 17 -11 0
-13 2 -14 9 -3 5 8 14 10 21 6 9 -6 8 -10 -4 -17 -23 -13 -10 -29 20 -24 13 3
24 0 24 -5 0 -5 -9 -9 -19 -9 -11 0 -28 -3 -38 -6 -15 -5 -16 -4 -3 6 13 10
13 11 0 7 -8 -2 -17 -12 -18 -22 -2 -10 0 -15 6 -11 6 3 12 0 15 -6 3 -10 8
-9 22 2 17 14 17 14 5 -7 -8 -12 -19 -19 -25 -16 -5 3 -5 0 2 -7 6 -7 17 -9
24 -4 20 12 49 12 56 1 3 -6 1 -7 -5 -3 -6 3 -13 2 -17 -3 -3 -6 -11 -8 -18
-5 -7 2 -21 -2 -32 -10 -19 -13 -18 -14 6 -9 14 2 42 -2 63 -11 20 -8 44 -12
53 -9 11 4 14 3 9 -5 -4 -7 -14 -12 -22 -12 -8 0 -13 -5 -11 -11 1 -6 -5 -14
-13 -16 -13 -4 -13 -3 0 6 22 15 -7 22 -50 12 -33 -8 -33 -9 -7 -10 16 -1 26
-5 23 -10 -4 -5 -17 -8 -30 -7 -14 2 -30 -1 -38 -6 -10 -7 -10 -9 2 -7 32 3
51 -1 45 -11 -4 -6 -12 -10 -18 -9 -7 1 -23 0 -37 -1 -18 -2 -20 -4 -7 -7 43
-11 8 -18 -93 -18 -102 0 -140 8 -87 18 15 3 11 5 -13 6 -19 1 -53 6 -75 11
l-40 9 48 -3 c26 -2 47 0 47 4 0 12 -84 18 -97 7 -9 -6 -13 -5 -13 4 0 11 -2
11 -8 1 -9 -14 -42 -6 -42 10 0 5 5 6 10 3 6 -3 10 -1 10 6 0 7 11 10 29 7 17
-2 28 -1 26 3 -7 10 -75 16 -81 7 -9 -14 -21 -9 -38 17 -16 25 -16 25 2 14 20
-13 72 -5 72 10 0 6 -13 6 -32 1 -33 -9 -33 -9 -12 9 20 16 20 18 5 29 -13 9
-9 11 24 12 l40 2 -32 9 c-40 12 -44 23 -5 16 17 -3 34 1 45 11 17 15 17 15
11 -4 -4 -10 -4 -16 0 -13 9 8 17 51 8 46 -4 -3 -16 5 -27 16 -11 11 -14 17
-7 13 6 -4 12 -3 12 3 0 5 -8 15 -17 20 -15 9 -12 11 17 11 29 1 32 3 15 10
-14 7 -5 8 30 5 44 -4 48 -3 32 9 -11 9 -33 13 -55 10 l-37 -4 35 11 c31 10
33 12 15 20 -27 10 -43 11 -27 0 10 -6 7 -10 -12 -13 -15 -3 -30 0 -34 7 -4 6
-16 17 -27 23 -17 10 -15 11 13 6 18 -4 32 -2 32 3 0 7 16 7 43 3 57 -11 60
-3 4 11 -31 9 -43 17 -40 26 4 9 9 11 15 5 11 -11 48 -4 48 9 0 5 -6 9 -12 10
-7 0 -4 5 7 10 15 7 8 8 -25 5 -25 -3 -39 -3 -32 0 6 3 10 9 7 14 -2 4 14 11
38 14 34 6 39 9 24 17 -9 6 -22 7 -29 3 -7 -4 -8 -3 -4 4 4 7 2 12 -4 12 -6 0
-9 4 -6 9 3 5 21 8 40 7 19 -1 32 2 30 6 -3 5 -15 8 -27 9 -20 1 -20 2 3 9 14
4 18 8 9 9 -8 1 -24 8 -35 16 -18 15 -17 16 16 10 25 -4 31 -3 20 4 -8 5 -11
13 -7 17 4 4 -5 13 -20 20 -27 12 -27 12 13 9 28 -2 41 1 41 9 0 8 -10 11 -26
9 -23 -3 -24 -2 -6 6 19 9 18 10 -5 11 -22 0 -23 2 -7 11 9 5 17 19 17 29 0
12 7 20 18 20 13 0 14 2 3 9 -11 7 -9 10 8 16 25 8 27 18 6 35 -19 16 -10 30
18 31 19 0 19 2 -5 11 -30 10 -36 23 -15 31 7 3 2 9 -13 15 -17 7 -20 11 -8
11 21 1 42 37 31 54 -11 18 -12 59 -1 80 6 11 5 17 -2 17 -6 0 -2 14 10 30 23
33 59 40 80 15z m-2789 -87 c7 -18 14 -36 17 -40 6 -13 -25 -9 -35 5 -6 6 -13
24 -17 40 -9 40 19 36 35 -5z m-111 -38 c6 -11 8 -20 6 -20 -3 0 -10 9 -16 20
-6 11 -8 20 -6 20 3 0 10 -9 16 -20z m837 -16 c-3 -3 -12 -4 -19 -1 -8 3 -5 6
6 6 11 1 17 -2 13 -5z m-711 -71 c-4 -32 -12 -62 -18 -68 -8 -7 -9 -5 -5 7 7
20 -9 34 -17 16 -3 -7 -3 -3 0 10 7 28 -19 71 -44 74 -9 0 3 4 28 8 25 4 49 8
54 8 5 1 6 -23 2 -55z m2678 -104 c-4 -7 -44 0 -44 7 0 2 11 3 24 2 14 -1 23
-5 20 -9z m-2688 -10 c3 -6 -1 -17 -10 -25 -9 -8 -11 -9 -6 -2 15 18 12 31 -6
24 -8 -3 -12 -2 -9 4 8 13 22 13 31 -1z m2639 -29 c-3 -5 -12 -10 -18 -10 -7
0 -6 4 3 10 19 12 23 12 15 0z m-2938 -26 c-3 -3 -12 -4 -19 -1 -8 3 -5 6 6 6
11 1 17 -2 13 -5z m55 -41 c18 1 33 -3 35 -10 3 -10 -11 -13 -50 -13 -30 0
-76 -2 -103 -5 -27 -3 -42 -2 -34 2 20 9 40 30 34 36 -3 2 16 1 42 -4 25 -5
60 -8 76 -6z m-439 -20 c-7 -2 -19 -2 -25 0 -7 3 -2 5 12 5 14 0 19 -2 13 -5z
m114 1 c-3 -3 -12 -4 -19 -1 -8 3 -5 6 6 6 11 1 17 -2 13 -5z m3163 -26 c0 -4
-4 -8 -9 -8 -6 0 -12 4 -15 8 -3 5 1 9 9 9 8 0 15 -4 15 -9z m335 -48 c3 -5
-3 -10 -15 -10 -12 0 -18 5 -15 10 3 6 10 10 15 10 5 0 12 -4 15 -10z m-346
-79 c9 -6 6 -8 -13 -8 -14 0 -23 3 -20 8 7 11 15 11 33 0z m-1954 -19 c-6 -4
-10 -22 -11 -39 0 -27 3 -33 19 -33 31 0 14 -10 -24 -15 -48 -5 -79 -16 -79
-26 0 -11 10 -15 65 -25 l40 -7 -60 -12 c-33 -7 -62 -11 -64 -9 -2 2 0 24 3
49 7 45 7 45 48 45 40 0 40 0 36 35 -4 32 2 42 27 44 7 0 7 -2 0 -7z m-720
-22 c8 -13 -25 -13 -45 0 -12 8 -9 10 12 10 15 0 30 -4 33 -10z m780 0 c3 -5
1 -10 -4 -10 -6 0 -11 5 -11 10 0 6 2 10 4 10 3 0 8 -4 11 -10z m2290 0 c-3
-5 -14 -10 -23 -9 -14 0 -13 2 3 9 27 11 27 11 20 0z m-2659 -65 c3 -26 1 -73
-7 -111 l-13 -66 -11 43 c-9 38 -35 67 -35 40 0 -6 5 -11 10 -11 6 0 10 -4 10
-10 0 -5 -11 -10 -25 -10 -21 0 -25 5 -25 31 0 34 45 135 63 142 20 7 26 -1
33 -48z m390 17 c-10 -2 -22 0 -28 6 -6 6 0 7 19 4 21 -5 23 -7 9 -10z m2258
-13 c-8 -13 -21 -11 -27 5 -4 10 0 12 14 9 10 -3 16 -9 13 -14z m-2154 7 c0
-2 -13 -6 -29 -8 -17 -2 -28 -1 -25 4 5 8 54 12 54 4z m-1069 -84 c-16 -5 -41
5 -41 17 0 7 10 6 26 -1 15 -7 21 -14 15 -16z m-76 -10 c-3 -3 -11 0 -18 7 -9
10 -8 11 6 5 10 -3 15 -9 12 -12z m1102 -8 c-3 -3 -12 -4 -19 -1 -8 3 -5 6 6
6 11 1 17 -2 13 -5z m2240 0 c-3 -3 -12 -4 -19 -1 -8 3 -5 6 6 6 11 1 17 -2
13 -5z m-2478 -35 c-16 -10 -23 -4 -14 10 3 6 11 8 17 5 6 -4 5 -9 -3 -15z
m-603 -4 c-11 -8 -27 -15 -36 -15 -9 0 -22 -6 -30 -12 -12 -11 -12 -10 0 5 12
16 12 18 -1 17 -7 -1 -21 -2 -29 0 -28 3 23 17 70 18 42 1 44 0 26 -13z m607
-35 c-3 -11 -7 -20 -9 -20 -2 0 -4 9 -4 20 0 11 4 20 9 20 5 0 7 -9 4 -20z
m2485 13 c-10 -2 -26 -2 -35 0 -10 3 -2 5 17 5 19 0 27 -2 18 -5z m-2752 -13
c9 0 12 -4 9 -10 -10 -17 -55 -12 -55 6 0 11 5 14 16 10 9 -3 22 -6 30 -6z
m20 -55 c-3 -8 -13 -14 -23 -14 -17 1 -17 2 0 6 9 2 17 14 18 26 0 12 3 16 6
9 3 -7 2 -19 -1 -27z m2274 25 c8 -5 11 -10 5 -10 -5 0 -17 5 -25 10 -8 5 -10
10 -5 10 6 0 17 -5 25 -10z m-2329 -25 c5 4 9 1 9 -4 0 -6 -2 -11 -4 -11 -2 0
-11 -3 -19 -6 -11 -4 -13 1 -9 23 4 19 7 23 10 10 2 -9 8 -15 13 -12z m304
-14 c3 -5 1 -12 -5 -16 -5 -3 -10 1 -10 9 0 18 6 21 15 7z m2490 -11 c3 -6 -1
-7 -9 -4 -18 7 -21 14 -7 14 6 0 13 -4 16 -10z m-538 -106 c-3 -3 -12 -4 -19
-1 -8 3 -5 6 6 6 11 1 17 -2 13 -5z m513 -44 c-8 -5 -22 -10 -30 -10 -13 0
-13 1 0 10 8 5 22 10 30 10 13 0 13 -1 0 -10z m-120 -41 c0 5 9 7 20 4 27 -7
15 -23 -18 -23 -15 0 -34 -5 -42 -11 -12 -8 -9 -9 13 -5 15 4 27 2 27 -4 0 -5
-13 -10 -30 -10 -20 0 -28 -4 -24 -13 3 -8 -5 -19 -18 -25 -21 -10 -20 -11 15
-10 20 1 37 5 37 9 0 3 25 1 56 -7 31 -7 61 -11 67 -10 7 2 9 1 5 -1 -5 -3 -3
-14 3 -25 9 -18 9 -18 -10 -9 -11 6 -23 16 -26 21 -7 12 -102 14 -108 3 -3 -5
15 -6 40 -4 25 2 50 -2 55 -7 8 -8 4 -9 -13 -5 -23 5 -23 5 -4 -10 19 -14 18
-15 -21 -26 -71 -19 -138 -26 -130 -13 4 7 2 12 -4 12 -6 0 -10 8 -8 18 3 15
-6 17 -86 15 -80 -1 -103 7 -51 20 14 3 10 5 -11 6 -16 0 -39 7 -49 15 -18 13
-18 14 1 20 10 3 43 2 71 -3 42 -6 51 -5 43 4 -6 7 -18 11 -28 9 -9 -2 -30 0
-47 4 -28 9 -26 10 28 17 41 5 61 4 72 -5 12 -10 19 -10 27 -2 11 11 5 15 -52
34 -8 3 21 8 65 12 44 4 85 9 90 10 6 2 18 -1 28 -6 10 -5 17 -5 17 1z m-291
-35 c10 -9 -35 -3 -49 6 -11 8 -7 9 15 4 17 -4 32 -8 34 -10z m361 12 c0 -11
-19 -15 -25 -6 -3 5 1 10 9 10 9 0 16 -2 16 -4z m-410 -47 c0 -4 -8 -7 -18 -6
-10 0 -19 6 -19 13 0 6 9 9 19 6 10 -2 18 -8 18 -13z m380 1 c12 -8 11 -10 -7
-10 -13 0 -23 5 -23 10 0 13 11 13 30 0z m85 -10 c-3 -5 -17 -10 -31 -10 -13
0 -24 5 -24 10 0 6 14 10 31 10 17 0 28 -4 24 -10z m-600 -10 c-3 -5 -12 -10
-18 -10 -7 0 -6 4 3 10 19 12 23 12 15 0z m665 0 c-8 -5 -19 -10 -25 -10 -5 0
-3 5 5 10 8 5 20 10 25 10 6 0 3 -5 -5 -10z m-507 -27 c-7 -2 -19 -2 -25 0 -7
3 -2 5 12 5 14 0 19 -2 13 -5z m-10 -31 c3 -4 40 -5 82 -2 76 5 115 -1 115
-19 0 -10 -18 -10 -35 0 -18 11 -97 10 -90 -1 4 -6 -2 -7 -17 -1 -13 4 -28 6
-35 4 -6 -2 -24 3 -40 11 -26 14 -26 15 -6 16 12 0 24 -3 26 -8z m502 -12 c3
-5 1 -10 -4 -10 -6 0 -11 5 -11 10 0 6 2 10 4 10 3 0 8 -4 11 -10z m-519 -23
c11 -3 57 -7 104 -8 59 -2 90 -7 103 -18 10 -8 34 -14 54 -14 25 1 32 -2 22
-8 -9 -6 -10 -9 -2 -9 6 0 14 4 18 9 3 6 23 9 45 8 21 0 36 -5 33 -10 -3 -5
-14 -7 -24 -4 -10 3 -22 1 -25 -4 -5 -9 1 -11 50 -13 16 0 31 -7 34 -15 3 -8
0 -11 -7 -7 -6 4 -11 3 -11 -2 0 -5 19 -7 43 -6 24 1 50 -2 58 -7 10 -6 7 -9
-13 -9 -15 0 -30 -5 -34 -12 -5 -8 -2 -9 10 -5 9 4 15 3 12 -2 -3 -5 -27 -12
-53 -16 -35 -5 -43 -9 -32 -17 10 -7 9 -8 -6 -3 -11 4 -28 7 -37 7 -20 -1 -36
18 -16 19 7 1 28 1 46 1 17 0 32 4 32 9 0 4 -40 7 -89 6 -72 -2 -85 -4 -69
-13 18 -10 11 -13 -52 -28 -50 -11 -77 -13 -84 -6 -14 14 -29 13 -20 -2 5 -7
2 -9 -9 -5 -8 3 -21 -1 -27 -9 -15 -17 -34 -19 -23 -1 17 27 11 35 -18 27 -16
-5 -27 -5 -24 0 6 10 -62 23 -77 14 -6 -4 -8 -3 -5 3 4 6 -9 13 -33 17 -21 3
-41 10 -45 15 -3 6 10 5 31 -1 20 -5 38 -7 41 -4 3 3 15 0 26 -6 27 -14 160
-21 152 -8 -4 6 1 10 10 10 9 0 14 -4 11 -8 -2 -4 3 -8 12 -9 9 -1 29 -5 45
-9 22 -5 26 -4 21 9 -6 17 -83 33 -110 23 -21 -8 -65 4 -58 15 3 5 13 5 24 -1
24 -13 30 -13 30 0 0 6 -9 10 -21 10 -12 0 -17 4 -14 11 4 6 14 8 22 5 8 -3
20 -3 26 1 19 11 -34 20 -75 12 -21 -3 -38 -2 -38 2 0 5 15 9 33 10 27 0 29 2
12 10 -23 10 12 7 100 -10 28 -5 70 -5 95 -1 l45 7 -55 2 c-35 1 -50 4 -41 10
9 6 4 10 -18 13 -33 5 -43 -7 -13 -16 9 -3 4 -3 -13 0 -16 3 -59 10 -95 16
-69 11 -116 36 -62 32 16 -1 38 -4 48 -7z m384 -1 c0 -3 -4 -8 -10 -11 -5 -3
-10 -1 -10 4 0 6 5 11 10 11 6 0 10 -2 10 -4z m78 -9 c9 -10 4 -13 -19 -15
-16 -1 -29 3 -29 9 0 6 9 8 21 4 15 -5 19 -4 15 4 -10 15 -1 14 12 -2z m-558
-13 c0 -2 -7 -4 -15 -4 -8 0 -15 4 -15 10 0 5 7 7 15 4 8 -4 15 -8 15 -10z
m38 -25 c-17 -10 -38 1 -31 16 4 11 9 12 23 2 13 -7 15 -14 8 -18z m572 21 c0
-5 -5 -10 -11 -10 -5 0 -7 5 -4 10 3 6 8 10 11 10 2 0 4 -4 4 -10z m-2886 -41
c-8 -13 -24 -1 -24 18 0 13 3 13 15 3 8 -7 12 -16 9 -21z m2830 9 c-7 -11 -41
-10 -49 1 -3 5 8 9 24 9 17 -1 28 -5 25 -10z m-1 -25 c-7 -2 -19 -2 -25 0 -7
3 -2 5 12 5 14 0 19 -2 13 -5z m-2706 -25 c-3 -8 -6 -5 -6 6 -1 11 2 17 5 13
3 -3 4 -12 1 -19z m-10 -45 c-4 -3 -28 1 -55 9 -44 15 -45 16 -15 17 17 1 35
-3 38 -9 12 -19 26 -10 21 13 l-6 22 12 -23 c6 -12 8 -25 5 -29z m233 -60 c17
-16 20 -22 10 -23 -15 0 -90 85 -90 102 0 5 12 -5 28 -24 15 -18 38 -43 52
-55z m2530 83 c0 -3 -4 -8 -10 -11 -5 -3 -10 -1 -10 4 0 6 5 11 10 11 6 0 10
-2 10 -4z m-750 -16 c12 -8 9 -10 -12 -10 -15 0 -30 5 -33 10 -8 13 25 13 45
0z m100 -20 c13 -9 13 -10 0 -10 -8 0 -22 5 -30 10 -13 9 -13 10 0 10 8 0 22
-5 30 -10z m610 3 c-8 -3 -23 -10 -32 -15 -11 -5 -18 -5 -18 1 0 10 23 18 50
19 13 0 13 0 0 -5z m-183 -9 c-3 -3 -12 -4 -19 -1 -8 3 -5 6 6 6 11 1 17 -2
13 -5z m70 -10 c-3 -3 -12 -4 -19 -1 -8 3 -5 6 6 6 11 1 17 -2 13 -5z m-372
-14 c-3 -5 -12 -10 -18 -10 -7 0 -6 4 3 10 19 12 23 12 15 0z m205 0 c0 -5 -2
-10 -4 -10 -3 0 -8 5 -11 10 -3 6 -1 10 4 10 6 0 11 -4 11 -10z m270 0 c0 -5
-12 -10 -27 -9 l-28 1 25 8 c14 4 26 8 28 9 1 1 2 -3 2 -9z m25 -9 c3 -5 2
-12 -3 -15 -5 -3 -9 1 -9 9 0 17 3 19 12 6z m-468 -7 c-3 -3 -12 -4 -19 -1 -8
3 -5 6 6 6 11 1 17 -2 13 -5z m383 -4 c0 -5 -15 -10 -32 -11 -31 -1 -31 -2 -8
-8 20 -6 22 -8 8 -13 -10 -4 -23 1 -33 12 -16 18 -15 19 12 23 50 7 53 7 53
-3z m-333 -6 c-3 -3 -12 -4 -19 -1 -8 3 -5 6 6 6 11 1 17 -2 13 -5z m161 -14
c26 -8 26 -9 -5 -7 -18 1 -35 7 -38 15 -3 7 0 10 6 6 6 -3 23 -10 37 -14z
m-137 1 c-18 -12 31 -20 144 -25 50 -3 96 -5 103 -5 7 -1 10 -6 6 -12 -5 -8 1
-10 19 -5 14 3 29 2 32 -4 3 -6 -1 -7 -9 -4 -10 4 -16 1 -16 -9 0 -23 -29 -36
-62 -27 -16 5 -28 5 -28 0 0 -5 -7 -7 -16 -3 -12 4 -13 8 -3 13 8 6 6 9 -7 13
-12 3 -6 6 16 7 25 2 17 5 -30 11 -65 8 -120 4 -120 -10 0 -12 69 -33 89 -26
10 3 23 -1 30 -8 9 -12 3 -13 -37 -9 -26 2 -55 8 -64 13 -11 6 -18 5 -22 -4
-4 -9 -8 -9 -11 -1 -3 7 -14 10 -23 8 -9 -3 -42 -1 -72 4 -30 6 -45 10 -32 11
30 1 28 21 -2 21 -13 0 -26 4 -28 9 -1 6 -16 12 -32 15 -50 9 -43 19 9 11 28
-4 52 -10 55 -15 8 -11 51 -23 85 -22 21 1 25 -2 15 -8 -12 -8 -10 -10 7 -10
16 0 21 4 17 15 -4 8 -10 15 -16 15 -5 0 -7 4 -3 9 3 5 -5 13 -17 17 -22 7
-22 7 -3 15 27 10 43 11 26 0z m214 -1 c-3 -5 -16 -10 -28 -9 -20 1 -20 2 3 9
14 4 26 8 28 9 2 1 0 -3 -3 -9z m-75 -66 c0 -2 -11 -4 -25 -4 -14 0 -25 4 -25
9 0 4 11 6 25 3 14 -2 25 -6 25 -8z m-804 -4 c15 -6 25 -13 22 -15 -3 -3 -22
1 -44 9 -21 8 -31 15 -22 15 9 1 29 -4 44 -9z m148 -10 c18 -1 19 -2 5 -10
-11 -7 -29 -5 -55 5 l-39 15 34 -5 c18 -3 43 -5 55 -5z m906 0 c0 -5 -9 -10
-21 -10 -13 0 -18 -4 -13 -12 6 -10 4 -10 -7 0 -7 6 -24 13 -38 14 -15 0 -3 4
24 8 28 4 51 8 53 8 1 1 2 -2 2 -8z m-320 -36 c0 -2 -7 -4 -15 -4 -8 0 -15 4
-15 10 0 5 7 7 15 4 8 -4 15 -8 15 -10z m-398 -2 c2 -4 46 -18 98 -31 104 -25
209 -59 225 -73 5 -4 -24 3 -65 17 -41 14 -96 27 -122 28 -25 1 -44 5 -42 8 6
10 -23 19 -64 20 -37 1 -99 16 -74 18 7 1 10 6 7 11 -3 6 3 10 14 10 10 0 21
-4 23 -8z m522 -3 l51 -2 -53 -10 c-44 -8 -59 -7 -85 7 l-32 17 34 -6 c18 -3
57 -6 85 -6z m103 -5 c-3 -3 -12 -4 -19 -1 -8 3 -5 6 6 6 11 1 17 -2 13 -5z
m-692 -14 c8 -13 -5 -13 -25 0 -13 8 -13 10 2 10 9 0 20 -4 23 -10z m322 4
c-3 -3 -12 -4 -19 -1 -8 3 -5 6 6 6 11 1 17 -2 13 -5z m63 -22 c0 -4 31 -6 70
-5 38 1 72 -3 76 -8 3 -6 -8 -9 -28 -8 -18 1 -37 1 -43 -1 -5 -1 -39 -1 -75 0
-36 1 -57 4 -47 7 9 2 17 9 17 14 0 5 7 9 15 9 8 0 15 -3 15 -8z m-241 -18
c12 -11 -8 -10 -39 2 l-35 14 35 -6 c19 -4 37 -8 39 -10z m-304 -14 c3 -6 -1
-7 -9 -4 -18 7 -21 14 -7 14 6 0 13 -4 16 -10z m-6 -26 c10 -9 -45 -3 -59 6
-11 7 -5 8 20 4 19 -4 37 -8 39 -10z m-109 -4 c0 -5 -4 -10 -9 -10 -6 0 -13 5
-16 10 -3 6 1 10 9 10 9 0 16 -4 16 -10z m-7 -23 c16 -10 47 -17 79 -18 36 0
47 -3 33 -8 -17 -7 -16 -9 11 -13 36 -5 56 0 49 13 -4 5 2 6 11 2 11 -4 13 -8
6 -11 -7 -2 -10 -8 -6 -13 7 -12 -6 -11 -89 7 -40 9 -87 25 -104 36 -19 11
-41 17 -52 13 -11 -3 -22 -2 -25 3 -9 15 60 7 87 -11z m80 6 c-7 -2 -21 -2
-30 0 -10 3 -4 5 12 5 17 0 24 -2 18 -5z m728 -2 c-8 -5 -20 -7 -28 -4 -21 8
-15 13 15 13 20 0 23 -3 13 -9z m84 -1 c-3 -5 -13 -10 -21 -10 -8 0 -12 5 -9
10 3 6 13 10 21 10 8 0 12 -4 9 -10z m39 2 c3 -5 -1 -9 -9 -9 -8 0 -12 4 -9 9
3 4 7 8 9 8 2 0 6 -4 9 -8z m-214 -12 c0 -5 -2 -10 -4 -10 -3 0 -8 5 -11 10
-3 6 -1 10 4 10 6 0 11 -4 11 -10z m-390 -8 c0 -5 -10 -14 -22 -20 -13 -7 -34
-19 -48 -29 l-25 -16 26 24 c21 20 57 46 67 48 1 1 2 -3 2 -7z m110 4 c0 -2
-7 -7 -16 -10 -8 -3 -12 -2 -9 4 6 10 25 14 25 6z m-69 -23 c13 -16 12 -17 -3
-4 -17 13 -22 21 -14 21 2 0 10 -8 17 -17z m514 -2 c3 -6 -3 -15 -14 -20 -18
-10 -21 -3 -12 27 2 6 20 1 26 -7z m88 -6 c1 -5 -16 -10 -38 -11 -22 -2 -31 0
-20 3 11 3 24 9 30 14 11 11 26 8 28 -6z m-743 -5 c-8 -5 -19 -10 -25 -10 -5
0 -3 5 5 10 8 5 20 10 25 10 6 0 3 -5 -5 -10z m-1810 -45 c0 -8 -2 -15 -4 -15
-2 0 -6 7 -10 15 -3 8 -1 15 4 15 6 0 10 -7 10 -15z m2535 5 c-3 -5 -16 -10
-28 -9 -20 1 -20 2 3 9 14 4 26 8 28 9 2 1 0 -3 -3 -9z m-418 -616 c-3 -3 -12
-4 -19 -1 -8 3 -5 6 6 6 11 1 17 -2 13 -5z m118 -64 c3 -5 2 -10 -4 -10 -5 0
-13 5 -16 10 -3 6 -2 10 4 10 5 0 13 -4 16 -10z"/>
<path d="M3320 5160 c0 -5 5 -10 11 -10 5 0 7 5 4 10 -3 6 -8 10 -11 10 -2 0
-4 -4 -4 -10z"/>
<path d="M3698 3453 c7 -3 16 -2 19 1 4 3 -2 6 -13 5 -11 0 -14 -3 -6 -6z"/>
<path d="M3740 3310 c0 -5 5 -10 11 -10 5 0 7 5 4 10 -3 6 -8 10 -11 10 -2 0
-4 -4 -4 -10z"/>
<path d="M3658 3303 c7 -3 16 -2 19 1 4 3 -2 6 -13 5 -11 0 -14 -3 -6 -6z"/>
<path d="M3588 3263 c7 -3 16 -2 19 1 4 3 -2 6 -13 5 -11 0 -14 -3 -6 -6z"/>
<path d="M3643 3173 c9 -2 25 -2 35 0 9 3 1 5 -18 5 -19 0 -27 -2 -17 -5z"/>
<path d="M3605 3130 c-4 -6 7 -10 27 -9 27 0 30 2 13 9 -27 12 -33 12 -40 0z"/>
<path d="M3778 2993 c7 -3 16 -2 19 1 4 3 -2 6 -13 5 -11 0 -14 -3 -6 -6z"/>
<path d="M3668 2933 c7 -3 16 -2 19 1 4 3 -2 6 -13 5 -11 0 -14 -3 -6 -6z"/>
<path d="M3568 2823 c6 -2 18 -2 25 0 6 3 1 5 -13 5 -14 0 -19 -2 -12 -5z"/>
<path d="M3748 2813 c7 -3 16 -2 19 1 4 3 -2 6 -13 5 -11 0 -14 -3 -6 -6z"/>
<path d="M3480 2752 c0 -4 15 -12 33 -18 26 -8 34 -7 34 3 0 7 -2 11 -4 9 -3
-2 -18 0 -34 4 -16 5 -29 6 -29 2z"/>
<path d="M3575 2750 c27 -12 43 -12 25 0 -8 5 -22 9 -30 9 -10 0 -8 -3 5 -9z"/>
<path d="M3694 2731 c4 -5 0 -12 -6 -14 -8 -3 -6 -6 5 -6 9 -1 17 6 17 14 0 8
-5 15 -11 15 -5 0 -8 -4 -5 -9z"/>
<path d="M3778 2733 c7 -3 16 -2 19 1 4 3 -2 6 -13 5 -11 0 -14 -3 -6 -6z"/>
<path d="M3885 2730 c-3 -5 -1 -10 4 -10 6 0 11 5 11 10 0 6 -2 10 -4 10 -3 0
-8 -4 -11 -10z"/>
<path d="M3738 2713 c7 -3 16 -2 19 1 4 3 -2 6 -13 5 -11 0 -14 -3 -6 -6z"/>
<path d="M3758 2643 c6 -2 18 -2 25 0 6 3 1 5 -13 5 -14 0 -19 -2 -12 -5z"/>
<path d="M3708 2453 c7 -3 16 -2 19 1 4 3 -2 6 -13 5 -11 0 -14 -3 -6 -6z"/>
<path d="M3685 2359 c-23 -5 -16 -7 28 -8 31 0 57 1 57 3 0 8 -56 11 -85 5z"/>
<path d="M3594 2342 c6 -10 1 -11 -21 -7 l-28 7 29 -16 c34 -19 56 -7 30 15
-13 10 -16 10 -10 1z"/>
<path d="M3727 2329 c8 -8 16 -8 30 0 16 9 14 10 -11 11 -22 0 -27 -3 -19 -11z"/>
<path d="M3650 2288 c0 -12 7 -18 23 -17 15 0 17 2 7 6 -8 3 -18 11 -22 17 -5
7 -8 4 -8 -6z"/>
<path d="M3550 2160 c0 -5 12 -10 28 -9 24 0 25 1 7 9 -27 12 -35 12 -35 0z"/>
<path d="M3763 2143 c4 -3 2 -12 -4 -20 -9 -10 -6 -13 14 -13 14 0 29 5 32 10
3 6 -1 10 -9 10 -9 0 -16 5 -16 10 0 6 -5 10 -12 10 -6 0 -8 -3 -5 -7z"/>
<path d="M3470 2120 c8 -5 22 -9 30 -9 10 0 8 3 -5 9 -27 12 -43 12 -25 0z"/>
<path d="M3295 5815 c-5 -2 -23 -6 -38 -10 -24 -5 -27 -8 -17 -20 17 -20 70
-20 70 0 0 8 8 15 18 15 14 0 15 2 2 10 -16 10 -19 11 -35 5z"/>
<path d="M3318 5733 c7 -3 16 -2 19 1 4 3 -2 6 -13 5 -11 0 -14 -3 -6 -6z"/>
<path d="M3705 5625 c-30 -13 -25 -17 25 -19 19 -1 25 -7 25 -23 1 -23 6 -28
26 -21 15 5 -16 78 -33 78 -7 -1 -26 -7 -43 -15z"/>
<path d="M578 5373 c-21 -5 -21 -4 -8 -37 5 -14 16 -26 25 -26 8 0 15 -4 15
-9 0 -15 41 -20 62 -8 20 13 18 48 -4 74 -10 13 -55 15 -90 6z"/>
<path d="M1386 5134 c-12 -32 -7 -64 12 -64 12 0 18 9 19 29 2 34 -21 61 -31
35z"/>
<path d="M2930 4969 c0 -5 5 -7 10 -4 6 3 10 8 10 11 0 2 -4 4 -10 4 -5 0 -10
-5 -10 -11z"/>
<path d="M2030 4950 c0 -5 5 -10 11 -10 5 0 7 5 4 10 -3 6 -8 10 -11 10 -2 0
-4 -4 -4 -10z"/>
<path d="M738 4773 c7 -3 16 -2 19 1 4 3 -2 6 -13 5 -11 0 -14 -3 -6 -6z"/>
<path d="M728 4743 c7 -3 16 -2 19 1 4 3 -2 6 -13 5 -11 0 -14 -3 -6 -6z"/>
<path d="M1950 4490 c-30 -5 -77 -8 -105 -9 -57 -1 -162 -48 -146 -64 13 -13
313 -16 416 -5 44 5 101 15 126 24 25 8 65 18 90 22 26 4 44 13 44 21 0 10
-39 14 -185 16 -102 1 -210 -1 -240 -5z"/>
<path d="M1990 4370 l-45 -7 58 -1 c37 -1 56 2 52 8 -3 6 -9 9 -13 8 -4 0 -27
-4 -52 -8z"/>
<path d="M670 4350 l-25 -8 28 -1 c15 -1 27 4 27 9 0 6 -1 10 -2 9 -2 -1 -14
-5 -28 -9z"/>
<path d="M618 4343 c7 -3 16 -2 19 1 4 3 -2 6 -13 5 -11 0 -14 -3 -6 -6z"/>
<path d="M46 4318 c-3 -13 -7 -44 -9 -69 l-4 -47 38 -6 c21 -3 48 -2 61 3 13
5 47 12 76 16 59 8 67 20 20 34 -31 9 -31 10 -10 16 26 9 29 30 5 40 -21 8
-143 35 -160 35 -7 0 -15 -10 -17 -22z"/>
<path d="M1740 4141 c0 -11 59 -20 65 -10 3 4 -2 10 -11 13 -23 9 -54 7 -54
-3z"/>
<path d="M1825 4140 c-3 -5 -1 -10 4 -10 6 0 11 5 11 10 0 6 -2 10 -4 10 -3 0
-8 -4 -11 -10z"/>
<path d="M3818 4123 c7 -3 16 -2 19 1 4 3 -2 6 -13 5 -11 0 -14 -3 -6 -6z"/>
<path d="M2700 4030 l-165 -6 150 -1 c83 0 233 3 335 6 l185 7 -170 0 c-93 0
-244 -3 -335 -6z"/>
<path d="M660 3952 c0 -5 9 -12 21 -15 13 -3 19 -1 16 6 -5 15 -37 22 -37 9z"/>
<path d="M1790 3810 c0 -5 7 -10 16 -10 8 0 12 5 9 10 -3 6 -10 10 -16 10 -5
0 -9 -4 -9 -10z"/>
<path d="M1820 3781 c0 -6 4 -13 10 -16 6 -3 7 1 4 9 -7 18 -14 21 -14 7z"/>
<path d="M3598 1353 c7 -3 16 -2 19 1 4 3 -2 6 -13 5 -11 0 -14 -3 -6 -6z"/>
<path d="M3563 1328 c-5 -10 41 -8 82 2 24 6 19 7 -23 6 -30 0 -56 -4 -59 -8z"/>
<path d="M3600 1310 c-14 -4 -20 -9 -15 -10 53 -9 65 -8 65 6 0 15 -12 16 -50
4z"/>
<path d="M3595 1240 c-3 -5 1 -10 9 -10 9 0 16 5 16 10 0 6 -4 10 -9 10 -6 0
-13 -4 -16 -10z"/>
</g>
</svg>
